<svg width="24" height="24" viewBox="0 0 24 24" fill="none" xmlns="http://www.w3.org/2000/svg">
<g clip-path="url(#clip0_6503_19005)">
<path d="M24 12.073C24 5.446 18.627 0.072998 12 0.072998C5.373 0.072998 0 5.446 0 12.073C0 18.063 4.388 23.027 10.125 23.927V15.542H7.078V12.072H10.125V9.43C10.125 6.423 11.917 4.761 14.658 4.761C15.97 4.761 17.344 4.996 17.344 4.996V7.949H15.83C14.339 7.949 13.874 8.874 13.874 9.823V12.073H17.202L16.67 15.543H13.874V23.928C19.612 23.027 24 18.062 24 12.073Z" fill="#1877F2"/>
</g>
<defs>
<clipPath id="clip0_6503_19005">
<rect width="24" height="24" fill="white"/>
</clipPath>
</defs>
</svg>
