<svg width="24" height="20" viewBox="0 0 24 20" fill="none" xmlns="http://www.w3.org/2000/svg">
<path d="M23.953 2.57003C23.0545 2.96563 22.1026 3.22677 21.128 3.34503C22.1541 2.72828 22.9224 1.76107 23.291 0.622026C22.34 1.17703 21.286 1.58103 20.164 1.80603C19.4238 1.01446 18.4429 0.489447 17.3736 0.312528C16.3044 0.135608 15.2067 0.316677 14.2509 0.827617C13.2952 1.33856 12.5349 2.15078 12.0881 3.13815C11.6412 4.12552 11.533 5.2328 11.78 6.28803C7.69 6.09503 4.067 4.13003 1.64 1.16203C1.19879 1.91184 0.968664 2.76705 0.974 3.63703C0.974 5.34703 1.844 6.85003 3.162 7.73303C2.38086 7.70816 1.61697 7.49696 0.934 7.11703V7.17703C0.933557 8.31342 1.32627 9.41497 2.04551 10.2948C2.76474 11.1746 3.76621 11.7785 4.88 12.004C4.1583 12.1974 3.40241 12.2265 2.668 12.089C2.98412 13.067 3.59766 13.922 4.42301 14.5345C5.24837 15.1471 6.24435 15.4867 7.272 15.506C5.53153 16.872 3.38248 17.6133 1.17 17.611C0.78 17.611 0.391 17.588 0 17.544C2.25571 18.9884 4.87851 19.755 7.557 19.753C16.61 19.753 21.555 12.257 21.555 5.76803C21.555 5.55803 21.555 5.34803 21.54 5.13803C22.506 4.44289 23.3392 3.57985 24 2.59003L23.953 2.57003Z" fill="#1DA1F2"/>
</svg>
