<svg width="24" height="24" viewBox="0 0 24 24" fill="none" xmlns="http://www.w3.org/2000/svg">
<path d="M17.4716 14.382C17.1746 14.233 15.7136 13.515 15.4416 13.415C15.1686 13.316 14.9706 13.267 14.7716 13.565C14.5746 13.862 14.0046 14.531 13.8316 14.729C13.6586 14.928 13.4846 14.952 13.1876 14.804C12.8906 14.654 11.9326 14.341 10.7976 13.329C9.91464 12.541 9.31764 11.568 9.14464 11.27C8.97164 10.973 9.12664 10.812 9.27464 10.664C9.40864 10.531 9.57264 10.317 9.72064 10.144C9.86964 9.97004 9.91864 9.84604 10.0186 9.64704C10.1176 9.44904 10.0686 9.27604 9.99364 9.12704C9.91864 8.97804 9.32464 7.51504 9.07764 6.92004C8.83564 6.34104 8.59064 6.42004 8.40864 6.41004C8.23564 6.40204 8.03764 6.40004 7.83864 6.40004C7.64064 6.40004 7.31864 6.47404 7.04664 6.77204C6.77464 7.06904 6.00664 7.78804 6.00664 9.25104C6.00664 10.713 7.07164 12.126 7.21964 12.325C7.36864 12.523 9.31564 15.525 12.2966 16.812C13.0056 17.118 13.5586 17.301 13.9906 17.437C14.7026 17.664 15.3506 17.632 15.8616 17.555C16.4326 17.47 17.6196 16.836 17.8676 16.142C18.1156 15.448 18.1156 14.853 18.0406 14.729C17.9666 14.605 17.7686 14.531 17.4706 14.382H17.4716ZM12.0496 21.785H12.0456C10.2754 21.7852 8.53772 21.3092 7.01464 20.407L6.65364 20.193L2.91264 21.175L3.91064 17.527L3.67564 17.153C2.68608 15.5773 2.16258 13.7537 2.16564 11.893C2.16664 6.44304 6.60164 2.00904 12.0536 2.00904C14.6936 2.00904 17.1756 3.03904 19.0416 4.90704C19.9623 5.82366 20.6921 6.91377 21.1886 8.11428C21.6852 9.3148 21.9388 10.6019 21.9346 11.901C21.9316 17.351 17.4976 21.785 12.0496 21.785ZM20.4626 3.48804C19.3608 2.37896 18.0499 1.49958 16.6057 0.900841C15.1616 0.302105 13.613 -0.00407625 12.0496 4.09775e-05C5.49464 4.09775e-05 0.159641 5.33504 0.156641 11.892C0.156641 13.988 0.703641 16.034 1.74464 17.837L0.0566406 24L6.36164 22.346C8.10523 23.296 10.0591 23.7938 12.0446 23.794H12.0496C18.6036 23.794 23.9396 18.459 23.9426 11.901C23.9475 10.3383 23.6424 8.79014 23.0451 7.34607C22.4477 5.90201 21.57 4.59071 20.4626 3.48804Z" fill="#25D366"/>
</svg>
